<svg width="40" height="40" viewBox="0 0 40 40" xmlns="http://www.w3.org/2000/svg">
<path fill-rule="evenodd" clip-rule="evenodd" d="M7.15465 30.488C6.50379 31.1388 6.50379 32.1942 7.15465 32.845C7.80554 33.4958 8.8608 33.4958 9.51169 32.845L19.9998 22.3568L30.488 32.845C31.1388 33.4958 32.1942 33.4958 32.845 32.845C33.4958 32.1942 33.4958 31.1388 32.845 30.488L22.3568 19.9998L32.845 9.51169C33.4958 8.8608 33.4958 7.80554 32.845 7.15465C32.1942 6.50379 31.1388 6.50379 30.488 7.15465L19.9998 17.6428L9.51169 7.15465C8.8608 6.50379 7.80554 6.50379 7.15465 7.15465C6.50379 7.80554 6.50379 8.8608 7.15465 9.51169L17.6428 19.9998L7.15465 30.488Z" fill="currentColor"/>
</svg>
