<svg width="40" height="40" viewBox="0 0 40 40" xmlns="http://www.w3.org/2000/svg">
<path d="M28.6801 0C35.4601 0 40.0001 4.76 40.0001 11.84V28.182C40.0001 35.24 35.4601 40 28.6801 40H11.3401C4.56006 40 6.10352e-05 35.24 6.10352e-05 28.182V11.84C6.10352e-05 4.76 4.56006 0 11.3401 0H28.6801ZM28.3601 14C27.6801 13.32 26.5601 13.32 25.8801 14L17.6201 22.26L14.1201 18.76C13.4401 18.08 12.3201 18.08 11.6401 18.76C10.9601 19.44 10.9601 20.54 11.6401 21.24L16.4001 25.98C16.7401 26.32 17.1801 26.48 17.6201 26.48C18.0801 26.48 18.5201 26.32 18.8601 25.98L28.3601 16.48C29.0401 15.8 29.0401 14.7 28.3601 14Z" fill="currentColor"/>
</svg>
