<svg width="66" height="66" viewBox="0 0 66 66" xmlns="http://www.w3.org/2000/svg">
<path d="M32.588 0.580078C50.5371 0.580078 65.088 15.1308 65.088 33.0801C65.088 51.0292 50.5371 65.5801 32.588 65.5801C14.6387 65.5801 0.0879517 51.0292 0.0879517 33.0801C0.0879517 15.1308 14.6387 0.580078 32.588 0.580078ZM43.052 23.2315L28.5255 37.7578L22.124 31.3566C21.1721 30.4047 19.6288 30.4047 18.6769 31.3566C17.725 32.3085 17.725 33.8516 18.6769 34.8036L26.802 42.9286C27.7539 43.8805 29.297 43.8805 30.2489 42.9286L46.4989 26.6786C47.4509 25.7268 47.4509 24.1834 46.4989 23.2315C45.547 22.2796 44.0039 22.2796 43.052 23.2315Z" fill="currentColor"/>
</svg>
