<svg width="39" height="39" viewBox="0 0 39 39" xmlns="http://www.w3.org/2000/svg">
<path d="M19.4998 0C30.2696 0 38.9998 8.7321 38.9998 19.5C38.9998 30.2679 30.2696 39 19.4998 39C8.72991 39 -0.000244141 30.2679 -0.000244141 19.5C-0.000244141 8.7321 8.72991 0 19.4998 0ZM19.4998 3.25065C10.5395 3.25065 3.25041 10.5398 3.25041 19.5C3.25041 28.4603 10.5395 35.7494 19.4998 35.7494C28.46 35.7494 35.7491 28.4603 35.7491 19.5C35.7491 10.5398 28.46 3.25065 19.4998 3.25065ZM19.4998 26.325C20.5767 26.325 21.4498 27.198 21.4498 28.275C21.4498 29.352 20.5767 30.225 19.4998 30.225C18.4228 30.225 17.5498 29.352 17.5498 28.275C17.5498 27.198 18.4228 26.325 19.4998 26.325ZM19.4998 9.2625C22.4614 9.2625 24.8623 11.6634 24.8623 14.625C24.8623 16.5961 24.2821 17.6943 22.8126 19.2243L22.4838 19.5591C21.2711 20.7718 20.9623 21.2868 20.9623 22.425C20.9623 23.2327 20.3074 23.8875 19.4998 23.8875C18.6921 23.8875 18.0373 23.2327 18.0373 22.425C18.0373 20.4539 18.6174 19.3557 20.0869 17.8257L20.4157 17.4909C21.6284 16.2782 21.9373 15.7632 21.9373 14.625C21.9373 13.2788 20.846 12.1875 19.4998 12.1875C18.2377 12.1875 17.1997 13.1466 17.0749 14.3758L17.0623 14.625C17.0623 15.4327 16.4074 16.0875 15.5998 16.0875C14.792 16.0875 14.1373 15.4327 14.1373 14.625C14.1373 11.6634 16.5381 9.2625 19.4998 9.2625Z" fill="currentColor"/>
</svg>
