<svg width="635" height="536" viewBox="0 0 635 536" fill="none" xmlns="http://www.w3.org/2000/svg">
<circle cx="39.7072" cy="160.462" r="5" transform="rotate(-8.81526 39.7072 160.462)" fill="#DCE2EE"/>
<circle cx="48.9025" cy="219.753" r="5" transform="rotate(-8.81526 48.9025 219.753)" fill="#DCE2EE"/>
<circle cx="58.0978" cy="279.044" r="5" transform="rotate(-8.81526 58.0978 279.044)" fill="#DCE2EE"/>
<circle cx="67.2912" cy="338.336" r="5" transform="rotate(-8.81526 67.2912 338.336)" fill="#DCE2EE"/>
<circle cx="76.4865" cy="397.627" r="5" transform="rotate(-8.81526 76.4865 397.627)" fill="#DCE2EE"/>
<circle cx="85.6818" cy="456.918" r="5" transform="rotate(-8.81526 85.6818 456.918)" fill="#DCE2EE"/>
<circle cx="94.8771" cy="516.209" r="5" transform="rotate(-8.81526 94.8771 516.209)" fill="#DCE2EE"/>
<circle cx="98.9982" cy="151.267" r="5" transform="rotate(-8.81526 98.9982 151.267)" fill="#DCE2EE"/>
<circle cx="108.194" cy="210.558" r="5" transform="rotate(-8.81526 108.194 210.558)" fill="#DCE2EE"/>
<circle cx="117.389" cy="269.849" r="5" transform="rotate(-8.81526 117.389 269.849)" fill="#DCE2EE"/>
<circle cx="126.584" cy="329.141" r="5" transform="rotate(-8.81526 126.584 329.141)" fill="#DCE2EE"/>
<circle cx="135.777" cy="388.432" r="5" transform="rotate(-8.81526 135.777 388.432)" fill="#DCE2EE"/>
<circle cx="144.973" cy="447.723" r="5" transform="rotate(-8.81526 144.973 447.723)" fill="#DCE2EE"/>
<circle cx="154.168" cy="507.014" r="5" transform="rotate(-8.81526 154.168 507.014)" fill="#DCE2EE"/>
<circle cx="158.289" cy="142.072" r="5" transform="rotate(-8.81526 158.289 142.072)" fill="#DCE2EE"/>
<circle cx="167.485" cy="201.363" r="5" transform="rotate(-8.81526 167.485 201.363)" fill="#DCE2EE"/>
<circle cx="176.68" cy="260.654" r="5" transform="rotate(-8.81526 176.68 260.654)" fill="#DCE2EE"/>
<circle cx="185.875" cy="319.946" r="5" transform="rotate(-8.81526 185.875 319.946)" fill="#DCE2EE"/>
<circle cx="195.069" cy="379.237" r="5" transform="rotate(-8.81526 195.069 379.237)" fill="#DCE2EE"/>
<circle cx="204.264" cy="438.528" r="5" transform="rotate(-8.81526 204.264 438.528)" fill="#DCE2EE"/>
<circle cx="213.459" cy="497.819" r="5" transform="rotate(-8.81526 213.459 497.819)" fill="#DCE2EE"/>
<circle cx="217.58" cy="132.877" r="5" transform="rotate(-8.81526 217.58 132.877)" fill="#DCE2EE"/>
<circle cx="226.776" cy="192.168" r="5" transform="rotate(-8.81526 226.776 192.168)" fill="#DCE2EE"/>
<circle cx="235.971" cy="251.46" r="5" transform="rotate(-8.81526 235.971 251.46)" fill="#DCE2EE"/>
<circle cx="245.166" cy="310.751" r="5" transform="rotate(-8.81526 245.166 310.751)" fill="#DCE2EE"/>
<circle cx="254.361" cy="370.042" r="5" transform="rotate(-8.81526 254.361 370.042)" fill="#DCE2EE"/>
<circle cx="263.555" cy="429.333" r="5" transform="rotate(-8.81526 263.555 429.333)" fill="#DCE2EE"/>
<circle cx="272.75" cy="488.624" r="5" transform="rotate(-8.81526 272.75 488.624)" fill="#DCE2EE"/>
<circle cx="276.871" cy="123.682" r="5" transform="rotate(-8.81526 276.871 123.682)" fill="#DCE2EE"/>
<circle cx="286.067" cy="182.974" r="5" transform="rotate(-8.81526 286.067 182.974)" fill="#DCE2EE"/>
<circle cx="295.262" cy="242.265" r="5" transform="rotate(-8.81526 295.262 242.265)" fill="#DCE2EE"/>
<circle cx="304.457" cy="301.556" r="5" transform="rotate(-8.81526 304.457 301.556)" fill="#DCE2EE"/>
<circle cx="313.652" cy="360.847" r="5" transform="rotate(-8.81526 313.652 360.847)" fill="#DCE2EE"/>
<circle cx="322.848" cy="420.138" r="5" transform="rotate(-8.81526 322.848 420.138)" fill="#DCE2EE"/>
<circle cx="332.041" cy="479.43" r="5" transform="rotate(-8.81526 332.041 479.43)" fill="#DCE2EE"/>
<circle cx="336.164" cy="114.487" r="5" transform="rotate(-8.81526 336.164 114.487)" fill="#DCE2EE"/>
<circle cx="345.358" cy="173.778" r="5" transform="rotate(-8.81526 345.358 173.778)" fill="#DCE2EE"/>
<circle cx="354.553" cy="233.07" r="5" transform="rotate(-8.81526 354.553 233.07)" fill="#DCE2EE"/>
<circle cx="363.748" cy="292.361" r="5" transform="rotate(-8.81526 363.748 292.361)" fill="#DCE2EE"/>
<circle cx="372.944" cy="351.652" r="5" transform="rotate(-8.81526 372.944 351.652)" fill="#DCE2EE"/>
<circle cx="382.139" cy="410.943" r="5" transform="rotate(-8.81526 382.139 410.943)" fill="#DCE2EE"/>
<circle cx="391.332" cy="470.234" r="5" transform="rotate(-8.81526 391.332 470.234)" fill="#DCE2EE"/>
<circle cx="395.455" cy="105.292" r="5" transform="rotate(-8.81526 395.455 105.292)" fill="#DCE2EE"/>
<circle cx="404.651" cy="164.583" r="5" transform="rotate(-8.81526 404.651 164.583)" fill="#DCE2EE"/>
<circle cx="413.844" cy="223.875" r="5" transform="rotate(-8.81526 413.844 223.875)" fill="#DCE2EE"/>
<circle cx="423.039" cy="283.166" r="5" transform="rotate(-8.81526 423.039 283.166)" fill="#DCE2EE"/>
<circle cx="432.235" cy="342.457" r="5" transform="rotate(-8.81526 432.235 342.457)" fill="#DCE2EE"/>
<circle cx="441.43" cy="401.748" r="5" transform="rotate(-8.81526 441.43 401.748)" fill="#DCE2EE"/>
<circle cx="450.625" cy="461.04" r="5" transform="rotate(-8.81526 450.625 461.04)" fill="#DCE2EE"/>
<circle cx="454.746" cy="96.0971" r="5" transform="rotate(-8.81526 454.746 96.0971)" fill="#DCE2EE"/>
<circle cx="463.942" cy="155.389" r="5" transform="rotate(-8.81526 463.942 155.389)" fill="#DCE2EE"/>
<circle cx="473.135" cy="214.68" r="5" transform="rotate(-8.81526 473.135 214.68)" fill="#DCE2EE"/>
<circle cx="482.33" cy="273.971" r="5" transform="rotate(-8.81526 482.33 273.971)" fill="#DCE2EE"/>
<circle cx="491.526" cy="333.262" r="5" transform="rotate(-8.81526 491.526 333.262)" fill="#DCE2EE"/>
<circle cx="500.721" cy="392.554" r="5" transform="rotate(-8.81526 500.721 392.554)" fill="#DCE2EE"/>
<circle cx="509.916" cy="451.845" r="5" transform="rotate(-8.81526 509.916 451.845)" fill="#DCE2EE"/>
<circle cx="514.037" cy="86.9022" r="5" transform="rotate(-8.81526 514.037 86.9022)" fill="#DCE2EE"/>
<circle cx="523.233" cy="146.194" r="5" transform="rotate(-8.81526 523.233 146.194)" fill="#DCE2EE"/>
<circle cx="532.428" cy="205.485" r="5" transform="rotate(-8.81526 532.428 205.485)" fill="#DCE2EE"/>
<circle cx="541.621" cy="264.776" r="5" transform="rotate(-8.81526 541.621 264.776)" fill="#DCE2EE"/>
<circle cx="550.817" cy="324.067" r="5" transform="rotate(-8.81526 550.817 324.067)" fill="#DCE2EE"/>
<circle cx="560.012" cy="383.359" r="5" transform="rotate(-8.81526 560.012 383.359)" fill="#DCE2EE"/>
<circle cx="569.207" cy="442.65" r="5" transform="rotate(-8.81526 569.207 442.65)" fill="#DCE2EE"/>
<circle cx="573.328" cy="77.7074" r="5" transform="rotate(-8.81526 573.328 77.7074)" fill="#DCE2EE"/>
<circle cx="582.524" cy="136.998" r="5" transform="rotate(-8.81526 582.524 136.998)" fill="#DCE2EE"/>
<circle cx="591.719" cy="196.29" r="5" transform="rotate(-8.81526 591.719 196.29)" fill="#DCE2EE"/>
<circle cx="600.914" cy="255.581" r="5" transform="rotate(-8.81526 600.914 255.581)" fill="#DCE2EE"/>
<circle cx="610.108" cy="314.872" r="5" transform="rotate(-8.81526 610.108 314.872)" fill="#DCE2EE"/>
<circle cx="619.303" cy="374.164" r="5" transform="rotate(-8.81526 619.303 374.164)" fill="#DCE2EE"/>
<circle cx="628.498" cy="433.455" r="5" transform="rotate(-8.81526 628.498 433.455)" fill="#DCE2EE"/>
<circle cx="592" cy="526" r="10" fill="#BCE01A"/>
<circle cx="12" cy="426" r="12" fill="#16A3B9"/>
<circle cx="491" cy="10" r="10" fill="#FF7223"/>
</svg>
