<svg width="54" height="54" viewBox="0 0 54 54" fill="none" xmlns="http://www.w3.org/2000/svg">
<path d="M21.9767 0C23.8874 0 24.975 1.9014 24.975 3.81302V15.5167H22.5574C21.7563 13.5368 19.8162 12.1401 17.55 12.1401C14.5677 12.1401 12.15 14.5589 12.15 17.5427C12.15 20.5265 14.5677 22.9454 17.55 22.9454C19.8162 22.9454 21.7563 21.5487 22.5574 19.5687H24.975V49.0074C24.975 50.6177 24.2946 52.2193 22.8617 52.9532C21.6362 53.581 20.2244 54 18.6515 54C14.5727 54 11.5393 51.9357 9.58775 49.4929C8.15473 47.6992 7.21275 45.5908 6.83613 43.7199C5.74884 43.4038 4.52085 42.812 3.40826 41.857C1.49078 40.2114 0 37.5617 0 33.6596C0 31.6193 0.145827 29.8424 0.511299 28.348H11.8795C13.7104 28.348 15.226 29.6987 15.4853 31.4583C13.5274 32.2695 12.15 34.1999 12.15 36.452C12.15 39.4358 14.5677 41.8546 17.55 41.8546C20.5323 41.8546 22.95 39.4358 22.95 36.452C22.95 34.1766 21.5443 32.2301 19.5543 31.4337C19.2671 27.4439 15.9407 24.296 11.8795 24.296H2.80649C3.15886 24.0046 3.54586 23.7587 3.96681 23.5599C4.0257 23.5324 4.08483 23.5056 4.1442 23.48C3.85935 22.4883 3.71072 21.4527 3.66506 20.4365C3.57588 18.4517 3.87121 16.3838 4.46134 14.5444C5.04271 12.7323 5.96584 10.9717 7.26395 9.75297C8.07907 8.98769 9.08723 8.40915 10.2217 8.22152C10.7582 5.95279 12.1275 4.07721 13.8744 2.71658C16.1199 0.96772 19.0574 0 21.9767 0ZM29.025 40.5039H33.48C37.7298 40.5039 41.175 37.0571 41.175 32.8052V27.9552C43.1541 27.1538 44.55 25.2126 44.55 22.9454C44.55 19.9616 42.1324 17.5427 39.15 17.5427C36.1676 17.5427 33.75 19.9616 33.75 22.9454C33.75 25.2126 35.1459 27.1538 37.125 27.9552V32.8052C37.125 34.8193 35.4931 36.452 33.48 36.452H29.025V17.5618C29.025 17.5554 29.025 17.5491 29.025 17.5427C29.025 17.5364 29.025 17.53 29.025 17.5237V3.81302C29.025 1.9014 30.1126 0 32.0233 0C34.9426 0 37.8802 0.96772 40.1255 2.71658C41.8724 4.07721 43.2418 5.95279 43.7783 8.22152C44.9129 8.40915 45.9211 8.98769 46.7362 9.75297C48.0341 10.9717 48.9572 12.7323 49.5388 14.5444C50.1287 16.3838 50.4241 18.4517 50.335 20.4365C50.2894 21.4527 50.1406 22.4883 49.8558 23.48C49.9152 23.5056 49.9743 23.5324 50.0332 23.5599C51.0327 24.0316 51.8405 24.7698 52.4483 25.7496C53.5961 27.5992 54 30.2643 54 33.6596C54 37.5617 52.5093 40.2114 50.5918 41.857C49.4791 42.812 48.2512 43.4038 47.1639 43.7199C46.7872 45.5908 45.8452 47.6992 44.4123 49.4929C42.4607 51.9357 39.4273 54 35.3484 54C33.7757 54 32.3638 53.581 31.1383 52.9532C29.7054 52.2193 29.025 50.6177 29.025 49.0074V40.5039ZM16.2 17.5427C16.2 16.7968 16.8044 16.1921 17.55 16.1921C18.2956 16.1921 18.9 16.7968 18.9 17.5427C18.9 18.2887 18.2956 18.8934 17.55 18.8934C16.8044 18.8934 16.2 18.2887 16.2 17.5427ZM17.55 35.1013C16.8044 35.1013 16.2 35.7061 16.2 36.452C16.2 37.1978 16.8044 37.8026 17.55 37.8026C18.2956 37.8026 18.9 37.1978 18.9 36.452C18.9 35.7061 18.2956 35.1013 17.55 35.1013ZM37.8 22.9454C37.8 23.6912 38.4045 24.296 39.15 24.296C39.8955 24.296 40.5 23.6912 40.5 22.9454C40.5 22.1995 39.8955 21.5947 39.15 21.5947C38.4045 21.5947 37.8 22.1995 37.8 22.9454Z" fill="white"/>
</svg>
