<svg width="52" height="54" viewBox="0 0 52 54" fill="none" xmlns="http://www.w3.org/2000/svg">
<path d="M26.0297 0C28.0679 0.0234278 30.0983 0.258259 32.0882 0.700728C32.9566 0.893882 33.6062 1.61588 33.7048 2.49774L34.1775 6.72595C34.3913 8.66733 36.0354 10.1377 37.995 10.1398C38.5219 10.1406 39.0429 10.0312 39.5297 9.81648L43.4195 8.11265C44.2285 7.75827 45.1739 7.95148 45.7776 8.59466C48.5887 11.5883 50.6822 15.1786 51.9009 19.0955C52.1636 19.9401 51.8611 20.858 51.1471 21.3827L47.6995 23.9168C46.7158 24.6374 46.1351 25.7816 46.1351 26.9987C46.1351 28.2155 46.7158 29.3597 47.7014 30.082L51.1524 32.6169C51.8664 33.1414 52.1691 34.0594 51.9064 34.9043C50.6883 38.8206 48.596 42.4106 45.7865 45.4047C45.183 46.0477 44.2388 46.2416 43.4298 45.8879L39.5239 44.1818C38.4066 43.6941 37.1233 43.7656 36.0674 44.3743C35.0115 44.9827 34.3088 46.0557 34.1744 47.2645L33.7051 51.4923C33.6081 52.3641 32.9724 53.0813 32.1168 53.2843C28.0943 54.2386 23.9032 54.2386 19.8804 53.2843C19.0247 53.0813 18.3891 52.3641 18.2923 51.4923L17.8234 47.2709C17.6857 46.0643 16.9818 44.9946 15.9267 44.3881C14.8716 43.7816 13.5905 43.7105 12.4768 44.1954L8.57029 45.9018C7.76115 46.2554 6.81636 46.0616 6.21301 45.418C3.40202 42.4206 1.30958 38.8261 0.0931863 34.9057C-0.168817 34.0613 0.1339 33.1439 0.84759 32.6197L4.30062 30.0831C5.28414 29.3625 5.865 28.2183 5.865 27.0015C5.865 25.7844 5.28414 24.6401 4.29931 23.9187L0.848479 21.3864C0.133706 20.8619 -0.169289 19.9434 0.0936584 19.0983C1.31216 15.1814 3.40569 11.591 6.21673 8.59743C6.8207 7.95425 7.76592 7.76104 8.57493 8.11542L12.4641 9.81894C13.5831 10.3087 14.8697 10.2347 15.9305 9.6167C16.9867 9.00581 17.6899 7.93171 17.8256 6.72271L18.298 2.49774C18.3966 1.61543 19.0468 0.89319 19.9159 0.700451C21.908 0.258702 23.9404 0.0239539 26.0297 0ZM25.995 18.6922C21.3934 18.6922 17.6632 22.4117 17.6632 27.0001C17.6632 31.5881 21.3934 35.3078 25.995 35.3078C30.5963 35.3078 34.3266 31.5881 34.3266 27.0001C34.3266 22.4117 30.5963 18.6922 25.995 18.6922Z" fill="white"/>
</svg>
