<svg width="50" height="48" viewBox="0 0 50 48" fill="none" xmlns="http://www.w3.org/2000/svg">
<path d="M37.3237 0.0125732L36.8696 0H8.54904L8.09488 0.0125732C3.88588 0.246446 0.54541 3.71067 0.54541 7.94986V36.0801L0.558068 36.5312C0.793523 40.7118 4.28119 44.03 8.54904 44.03H22.7645C21.8097 42.5488 21.0955 40.8999 20.6764 39.1377H8.54904L8.23429 39.1218C6.68203 38.9653 5.47072 37.6632 5.47072 36.0801L5.47368 12.2305H39.9479L39.9489 19.9943C41.7237 20.4106 43.3843 21.1204 44.8762 22.0693V7.94986L44.8636 7.49874C44.6366 3.46736 41.3854 0.238104 37.3237 0.0125732ZM20.2299 17.4853C20.1075 16.5899 19.3347 15.8997 18.3997 15.8997H9.78037L9.52975 15.9165C8.62822 16.0379 7.93338 16.8055 7.93338 17.7343V34.8571L7.95025 35.1061C8.07254 36.0014 8.8453 36.6916 9.78037 36.6916H18.3997L18.6504 36.675C19.5517 36.5534 20.2467 35.7858 20.2467 34.8571V17.7343L20.2299 17.4853ZM11.6274 19.5689H16.5527V33.0225H11.6274V19.5689ZM37.4853 17.7343C37.4853 16.7211 36.6583 15.8997 35.6383 15.8997H24.5671L24.3164 15.9165C23.4151 16.0379 22.7202 16.8055 22.7202 17.7343C22.7202 18.7475 23.5471 19.5689 24.5671 19.5689H35.6383L35.889 19.5522C36.7903 19.4307 37.4853 18.6631 37.4853 17.7343ZM28.321 26.847C29.0962 29.5138 27.4847 32.2864 24.7718 32.953L23.3331 33.3065C23.2225 34.0102 23.1652 34.7323 23.1652 35.4681C23.1652 36.2379 23.228 36.9925 23.3489 37.7268L24.6772 38.0448C27.4169 38.7001 29.0457 41.5009 28.2481 44.1855L27.7893 45.7298C28.8706 46.673 30.1032 47.4391 31.4441 47.9841L32.6589 46.7151C34.601 44.6867 37.8574 44.6872 39.7984 46.7163L41.0266 48C42.3653 47.4611 43.5966 46.7023 44.6782 45.7669L44.1906 44.0892C43.4156 41.4222 45.0269 38.6497 47.7398 37.9832L49.1772 37.6297C49.2878 36.926 49.3454 36.2039 49.3454 35.4681C49.3454 34.6983 49.2824 33.9434 49.1617 33.2089L47.8343 32.8914C45.0946 32.236 43.4661 29.4353 44.2635 26.7504L44.722 25.2074C43.6407 24.2637 42.4081 23.4976 41.0669 22.9526L39.8526 24.2209C37.9106 26.2494 34.6544 26.249 32.7131 24.2197L31.4847 22.9359C30.146 23.4746 28.915 24.2331 27.8331 25.1685L28.321 26.847ZM36.2552 39.1373C34.2836 39.1373 32.6853 37.4945 32.6853 35.4681C32.6853 33.4417 34.2836 31.7989 36.2552 31.7989C38.227 31.7989 39.8253 33.4417 39.8253 35.4681C39.8253 37.4945 38.227 39.1373 36.2552 39.1373Z" fill="white"/>
</svg>
