<svg width="31" height="29" viewBox="0 0 31 29" fill="none" xmlns="http://www.w3.org/2000/svg">
<path d="M17.5197 0.100233C25.2071 0.928729 30.7676 7.83136 29.9392 15.5177C29.1109 23.204 22.2073 28.7634 14.5199 27.9349C12.2366 27.6888 10.0905 26.8998 8.22668 25.6492L2.08717 26.5602C1.43708 26.6568 0.831796 26.2081 0.735243 25.5581C0.70537 25.3572 0.72748 25.1519 0.799457 24.9618L2.99657 19.161C2.16893 17.0715 1.85402 14.8038 2.10043 12.5174C2.92881 4.83109 9.83226 -0.728269 17.5197 0.100233ZM17.6121 15.5971L11.346 14.9217L11.2034 14.9159C10.6863 14.9302 10.2465 15.3246 10.1896 15.853C10.1326 16.3815 10.4783 16.8605 10.9804 16.9846L11.121 17.0093L17.3871 17.6847L17.5299 17.6905C18.0469 17.6762 18.4866 17.2818 18.5436 16.7534C18.6005 16.2249 18.2549 15.7459 17.7528 15.6218L17.6121 15.5971ZM20.9186 11.0258L11.871 10.0507L11.7283 10.0449C11.2113 10.0591 10.7715 10.4535 10.7146 10.982C10.6576 11.5104 11.0033 11.9895 11.5054 12.1136L11.646 12.1383L20.6936 13.1134L20.8363 13.1192C21.3532 13.1049 21.7931 12.7105 21.8501 12.1821C21.907 11.6536 21.5613 11.1746 21.0593 11.0506L20.9186 11.0258Z" fill="white"/>
</svg>
