<svg width="30" height="28" viewBox="0 0 30 28" fill="none" xmlns="http://www.w3.org/2000/svg">
<path d="M14.7612 14.7124L2.70441 16.2223C1.19347 16.4118 0.120942 17.7918 0.310376 19.3027L0.56793 21.357L0.614786 21.6703C1.40145 26.1791 6.5105 26.8675 10.236 26.4004C11.6465 26.2236 13.208 25.8374 14.5854 25.1781C13.7849 24.0266 13.2436 22.6696 13.057 21.1813C12.7573 18.7912 13.4278 16.5031 14.7612 14.7124ZM13.9067 5.78347C13.4803 2.38248 10.3768 -0.0295167 6.97585 0.396881C3.57486 0.823279 1.16286 3.92677 1.58926 7.32777C2.01566 10.7288 5.11915 13.1407 8.52014 12.7144C11.9211 12.288 14.3331 9.18446 13.9067 5.78347ZM25.0272 5.77937C24.6955 3.13385 22.282 1.25812 19.6365 1.5898C16.991 1.92148 15.1152 4.33497 15.4469 6.98049C15.7786 9.62601 18.1921 11.5017 20.8376 11.1701C23.4831 10.8384 25.3589 8.42489 25.0272 5.77937ZM29.4803 19.1223C30.0015 23.2796 27.054 27.0721 22.8967 27.5934C18.7394 28.1146 14.9468 25.167 14.4256 21.0097C13.9044 16.8525 16.8519 13.0599 21.0092 12.5387C25.1665 12.0174 28.9591 14.965 29.4803 19.1223ZM26.1389 16.2694C25.8381 16.0358 25.4048 16.0901 25.171 16.3908L20.8062 22.0071L18.2704 20.0362C17.9696 19.8025 17.5363 19.8568 17.3025 20.1575C17.0689 20.4583 17.1232 20.8916 17.4239 21.1254L20.5042 23.5194C20.805 23.7531 21.2383 23.6987 21.4721 23.3981L26.2602 17.2373C26.4938 16.9365 26.4395 16.5032 26.1389 16.2694Z" fill="white"/>
</svg>
