<svg width="28" height="33" viewBox="0 0 28 33" fill="none" xmlns="http://www.w3.org/2000/svg">
<path d="M11.4661 1.43868C12.0514 0.829959 13.0195 0.810996 13.6281 1.39633L17.5248 5.14327C17.8171 5.42435 17.9859 5.81006 17.9938 6.21551C18.0017 6.62098 17.8482 7.013 17.5672 7.30531L13.8202 11.202C13.2349 11.8107 12.2669 11.8297 11.6582 11.2443C11.0495 10.659 11.0305 9.69102 11.6158 9.08228L12.7523 7.90046C7.3541 8.54257 3.21905 13.1884 3.32777 18.7381C3.44354 24.6484 8.32866 29.3458 14.239 29.23C19.6951 29.1231 24.1195 24.9504 24.6743 19.6601C24.7623 18.8201 25.5146 18.2106 26.3544 18.2988C27.1944 18.3868 27.8039 19.1391 27.7158 19.9789C27.0023 26.7844 21.3165 32.1501 14.2989 32.2876C6.69989 32.4365 0.419027 26.397 0.270172 18.798C0.12778 11.5288 5.6482 5.46585 12.7795 4.82291L11.5085 3.60073C10.8998 3.01539 10.8808 2.04741 11.4661 1.43868ZM20.3651 13.4994C20.9738 14.0847 20.9928 15.0528 20.4075 15.6615L13.6626 22.6758C13.0773 23.2845 12.1093 23.3035 11.5006 22.7182L8.3831 19.7205C7.77438 19.1352 7.75542 18.1671 8.34075 17.5584C8.9261 16.9498 9.89407 16.9308 10.5028 17.5161L12.5181 19.454L18.2031 13.5418C18.7884 12.9331 19.7564 12.9141 20.3651 13.4994Z" fill="white"/>
</svg>
