<svg width="29" height="30" viewBox="0 0 29 30" fill="none" xmlns="http://www.w3.org/2000/svg">
<path d="M16.2794 0.817281C17.2333 1.08529 17.5095 2.18698 17.2414 3.14124L15.5998 8.98359L14.393 8.64451C14.2708 7.54379 13.4982 6.57446 12.367 6.2566C10.8782 5.8383 9.33208 6.70666 8.91357 8.19614C8.49507 9.68561 9.36267 11.2322 10.8514 11.6505C11.9827 11.9683 13.1471 11.5432 13.8247 10.6672L15.0315 11.0063L10.9025 25.7018C10.6766 26.5056 10.1123 27.2097 9.2941 27.3751C8.59428 27.5165 7.83077 27.5277 7.04558 27.3071C5.00949 26.735 3.78482 25.279 3.15325 23.7859C2.68948 22.6895 2.51497 21.5049 2.58938 20.5181C2.09095 20.2079 1.56097 19.7402 1.13951 19.1074C0.413139 18.017 0.040607 16.4852 0.587904 14.5373C0.874075 13.5188 1.1961 12.6523 1.58814 11.9576L7.26299 13.5521C8.17696 13.8089 8.7441 14.6957 8.62674 15.6104C7.53559 15.7408 6.57726 16.5112 6.26139 17.6354C5.84287 19.1249 6.71049 20.6714 8.19924 21.0897C9.68799 21.508 11.2341 20.6397 11.6526 19.1502C11.9718 18.0144 11.5431 16.8455 10.6614 16.1689C11.0776 14.1369 9.85865 12.099 7.83131 11.5294L3.30219 10.2568C3.51898 10.1607 3.74664 10.0923 3.98466 10.0521C4.01792 10.0466 4.05119 10.0415 4.08443 10.037C4.08132 9.50207 4.15238 8.96425 4.27211 8.45059C4.50599 7.44726 4.94344 6.45646 5.49603 5.621C6.0404 4.79797 6.74816 4.04856 7.5671 3.62227C8.08134 3.35457 8.66574 3.20717 9.25835 3.27262C9.8444 2.21536 10.791 1.47114 11.8539 1.03696C13.2201 0.47889 14.8222 0.407828 16.2794 0.817281ZM14.1169 22.025L16.3407 22.6498C18.4622 23.2459 20.6655 22.0085 21.2618 19.886L21.9421 17.4649C23.0424 17.3424 24.0115 16.5692 24.3295 15.4375C24.748 13.948 23.8804 12.4014 22.3917 11.9831C20.9029 11.5648 19.3568 12.4332 18.9383 13.9227C18.6203 15.0544 19.0448 16.2192 19.9204 16.8969L19.2401 19.3179C18.9576 20.3233 17.914 20.9095 16.9091 20.6271L14.6852 20.0023L17.3347 10.5725C17.3356 10.5693 17.3365 10.5662 17.3374 10.563C17.3383 10.5598 17.3392 10.5567 17.34 10.5535L19.2631 3.70929C19.5312 2.75503 20.3408 1.95841 21.2946 2.22642C22.7519 2.63587 24.0826 3.53097 24.9581 4.7189C25.6393 5.64313 26.0598 6.77147 26.0095 7.97924C26.5495 8.23204 26.9716 8.66224 27.2712 9.15859C27.7481 9.94899 27.962 10.9574 27.9982 11.9435C28.0347 12.9445 27.8921 14.0181 27.5692 14.9965C27.4039 15.4973 27.1844 15.9934 26.9031 16.4485C26.9292 16.4696 26.9549 16.4913 26.9804 16.5133C27.4132 16.8889 27.713 17.3708 27.8789 17.9451C28.1925 19.0294 28.0203 20.4164 27.5441 22.1113C26.9968 24.0592 25.881 25.1728 24.693 25.7253C24.0036 26.046 23.3076 26.1692 22.7205 26.1745C22.2701 27.0556 21.5041 27.9759 20.5372 28.6703C19.2204 29.616 17.4166 30.2211 15.3805 29.649C14.5954 29.4284 13.9494 29.0212 13.4257 28.5359C12.8133 27.9686 12.6983 27.0736 12.9242 26.2698L14.1169 22.025ZM10.9353 8.76418C11.0399 8.39182 11.4264 8.17473 11.7986 8.2793C12.1708 8.38387 12.3877 8.77052 12.2831 9.14288C12.1785 9.51525 11.7919 9.73234 11.4197 9.62777C11.0476 9.52319 10.8307 9.13655 10.9353 8.76418ZM9.14645 17.7186C8.77426 17.614 8.38771 17.8311 8.2831 18.2034C8.17849 18.5758 8.39538 18.9625 8.76756 19.067C9.13975 19.1716 9.5263 18.9545 9.63091 18.5821C9.73552 18.2098 9.51863 17.8231 9.14645 17.7186ZM20.96 14.4907C20.8554 14.863 21.0723 15.2497 21.4444 15.3543C21.8166 15.4588 22.2032 15.2417 22.3078 14.8694C22.4124 14.4971 22.1955 14.1104 21.8233 14.0058C21.4512 13.9013 21.0646 14.1184 20.96 14.4907Z" fill="white"/>
</svg>
