<svg width="31" height="26" viewBox="0 0 31 26" fill="none" xmlns="http://www.w3.org/2000/svg">
<path d="M1.78192 2.94444C1.96492 1.50947 3.27656 0.494548 4.71153 0.677555L24.7552 3.23379C26.1902 3.4168 27.2051 4.72843 27.0221 6.16341L25.4126 18.7835C25.2296 20.2185 23.918 21.2334 22.483 21.0504L2.43933 18.4941C1.00435 18.3111 -0.0105709 16.9995 0.172437 15.5645L1.78192 2.94444ZM6.33074 2.77014L6.14139 4.25485C6.06296 4.86984 5.50082 5.30481 4.88584 5.22638L3.40112 5.03703L3.1171 7.2641L4.60181 7.45345C6.44678 7.68875 8.13317 6.38385 8.36846 4.53888L8.55781 3.05416L6.33074 2.77014ZM13.1239 14.5758C14.9688 14.811 16.6553 13.5061 16.8905 11.6612C17.1258 9.81628 15.8209 8.12982 13.976 7.89454C12.131 7.65924 10.4446 8.9642 10.2093 10.8091C9.97403 12.654 11.2789 14.3405 13.1239 14.5758ZM2.26502 13.9453L3.74974 14.1347C4.36472 14.2131 4.79969 14.7753 4.72126 15.3902L4.53191 16.8749L6.75898 17.159L6.94833 15.6743C7.18362 13.8293 5.87873 12.1429 4.03376 11.9076L2.54905 11.7183L2.26502 13.9453ZM21.0531 17.4731C21.1316 16.8581 21.6937 16.4231 22.3087 16.5016L23.7934 16.6909L24.0774 14.4638L22.5927 14.2745C20.7478 14.0392 19.0613 15.3441 18.8261 17.1891L18.6367 18.6738L20.8638 18.9578L21.0531 17.4731ZM22.4733 6.33771L22.6626 4.853L20.4355 4.56897L20.2462 6.05369C20.0109 7.89865 21.3159 9.58505 23.1608 9.82034L24.6455 10.0097L24.9295 7.78261L23.4448 7.59326C22.8298 7.51483 22.3948 6.9527 22.4733 6.33771ZM3.12237 20.8446C3.72272 22.2741 5.04794 23.3534 6.6966 23.5637L21.9149 25.5045C25.8099 26.0013 29.37 23.2466 29.8668 19.3515L30.8608 11.5568C31.0711 9.90813 30.359 8.35443 29.1258 7.4145L27.6397 19.0675C27.2998 21.7324 24.8639 23.6173 22.199 23.2775L3.12237 20.8446Z" fill="white"/>
</svg>
