<svg width="25" height="30" viewBox="0 0 25 30" fill="none" xmlns="http://www.w3.org/2000/svg">
<path d="M11.968 12.1387L14.0803 12.1387L13.566 14.3856L11.4184 14.3856L11.968 12.1387ZM0.666016 4.37516C0.666016 2.41916 2.25168 0.833496 4.20768 0.833496L20.4993 0.833496C22.4553 0.833496 24.041 2.41916 24.041 4.37516L24.041 24.5627C24.041 25.1494 23.5653 25.6252 22.9785 25.6252L2.79102 25.6252C2.79102 26.4076 3.42529 27.0418 4.20768 27.0418L22.9785 27.0418C23.5653 27.0418 24.041 27.5175 24.041 28.1043C24.041 28.6911 23.5653 29.1668 22.9785 29.1668L4.20768 29.1668C2.25168 29.1668 0.666016 27.5812 0.666016 25.6252L0.666016 4.37516ZM10.617 8.72505L10.3006 10.0137L8.78476 10.0139L8.64059 10.0236C8.12199 10.094 7.72226 10.5385 7.72226 11.0764L7.73197 11.2206C7.80232 11.7392 8.24687 12.1389 8.78476 12.1389L9.78071 12.1387L9.23104 14.3856L8.10352 14.3869L7.95934 14.3965C7.44073 14.4669 7.04102 14.9115 7.04102 15.4494L7.05072 15.5936C7.12107 16.1121 7.56561 16.5119 8.10352 16.5119L8.71108 16.5106L8.53677 17.2291L8.51194 17.3715C8.45706 17.892 8.7939 18.3859 9.31632 18.5136L9.4587 18.5384C9.97918 18.5934 10.4732 18.2565 10.601 17.734L10.8985 16.5106L13.0787 16.5106L12.9122 17.2443L12.8896 17.387C12.8423 17.9083 13.1864 18.3972 13.7107 18.5173L13.8533 18.54C14.3745 18.5873 14.8634 18.2432 14.9836 17.7189L15.259 16.5106L16.5916 16.5119L16.7357 16.5021C17.2543 16.4318 17.6541 15.9873 17.6541 15.4494L17.6443 15.3052C17.5739 14.7865 17.1294 14.3869 16.5916 14.3869L15.7463 14.3856L16.2605 12.1387L17.2805 12.1389L17.4248 12.1292C17.9434 12.0589 18.343 11.6143 18.343 11.0764L18.3334 10.9322C18.263 10.4136 17.8184 10.0139 17.2805 10.0139L16.7479 10.0137L16.9319 9.21478L16.9547 9.07208C17.0019 8.55086 16.6578 8.06195 16.1335 7.94183L15.9908 7.9191C15.4696 7.87185 14.9807 8.21592 14.8606 8.74023L14.5676 10.0137L12.488 10.0137L12.681 9.22995L12.706 9.08761C12.7608 8.56714 12.4239 8.07324 11.9015 7.94543C11.3315 7.806 10.7564 8.15506 10.617 8.72505Z" fill="white"/>
</svg>
