<svg width="31" height="31" viewBox="0 0 31 31" fill="none" xmlns="http://www.w3.org/2000/svg">
<path d="M30.4141 13.3796C29.0781 5.30916 21.4526 -0.150118 13.3823 1.18589C5.31188 2.52192 -0.147409 10.1473 1.18861 18.2177C2.52462 26.2881 10.15 31.7474 18.2205 30.4114C26.2908 29.0754 31.7502 21.4499 30.4141 13.3796ZM9.24852 17.304C8.79501 16.9792 8.65887 16.3763 8.90618 15.8946L8.99196 15.7541L13.8704 8.93993C14.1951 8.48638 14.7982 8.35025 15.2799 8.59769L15.4206 8.68346L22.2337 13.5632C22.7324 13.9204 22.8471 14.6144 22.4899 15.1131C22.1651 15.5665 21.5621 15.7027 21.0804 15.4553L20.9399 15.3694L16.3058 12.0501L17.925 21.8285C18.0168 22.3833 17.6805 22.9101 17.1576 23.0711L17.0105 23.1058C16.4556 23.1977 15.9288 22.8612 15.7678 22.3384L15.7331 22.1913L14.1143 12.4159L10.7984 17.0474C10.4738 17.5009 9.87077 17.6371 9.38901 17.3897L9.24852 17.304Z" fill="white"/>
</svg>
