<svg width="24" height="29" viewBox="0 0 24 29" fill="none" xmlns="http://www.w3.org/2000/svg">
<path d="M10.8211 11.2522C10.7035 11.5297 10.4569 11.7316 10.1615 11.7921L8.21813 12.19L9.71606 13.4905C9.94364 13.6881 10.0595 13.9851 10.0257 14.2845L9.80363 16.2559L11.5034 15.233C11.7616 15.0777 12.0798 15.0593 12.3543 15.1839L14.1604 16.0043L13.7129 14.0716C13.645 13.7781 13.7258 13.4697 13.9291 13.2472L15.2675 11.7829L13.2913 11.6114C12.9909 11.5853 12.7228 11.4131 12.574 11.151L11.5949 9.42569L10.8211 11.2522ZM0.182847 5.0655C0.0753578 3.20393 1.49732 1.60769 3.35889 1.5002L18.864 0.604914C20.7255 0.497425 22.3218 1.91939 22.4293 3.78096L23.5386 22.9938C23.5709 23.5522 23.1443 24.0311 22.5858 24.0634L3.37301 25.1727C3.41601 25.9174 4.05451 26.4862 4.79913 26.4432L22.6637 25.4116C23.2221 25.3794 23.701 25.806 23.7333 26.3645C23.7655 26.9229 23.3389 27.4018 22.7805 27.434L4.91591 28.4656C3.05434 28.5731 1.4581 27.1511 1.35061 25.2895L0.182847 5.0655ZM9.32246 10.0944L6.03285 10.768C5.28926 10.9202 5.04304 11.8591 5.6162 12.3566L8.15182 14.5579L7.77592 17.8947C7.69095 18.6489 8.50775 19.1733 9.15812 18.7818L12.0352 17.0506L15.0925 18.4392C15.7835 18.7532 16.5346 18.1383 16.3634 17.3988L15.6058 14.1275L17.8713 11.649C18.3833 11.0888 18.0308 10.1845 17.2746 10.1188L13.9294 9.82835L12.2721 6.90792C11.8976 6.24777 10.9286 6.30372 10.6325 7.00259L9.32246 10.0944Z" fill="white"/>
</svg>
