<svg width="26" height="31" viewBox="0 0 26 31" fill="none" xmlns="http://www.w3.org/2000/svg">
<path d="M24.2193 4.74895C24.2704 5.29635 23.8681 5.78153 23.3207 5.83263L19.6865 6.1719C19.1391 6.223 18.6539 5.82067 18.6028 5.27327C18.5517 4.72588 18.9541 4.2407 19.5014 4.1896L21.2582 4.0256L21.2474 4.01891L21.2338 4.01009C20.1393 3.28885 18.8031 2.92174 17.3958 3.05312C14.1114 3.35973 11.6974 6.2708 12.004 9.55518C12.3106 12.8396 15.2217 15.2535 18.5061 14.9469C21.7905 14.6403 24.2045 11.7292 23.8978 8.44486C23.8467 7.89746 24.2491 7.41228 24.7965 7.36118C25.3439 7.31008 25.829 7.71241 25.8801 8.2598C26.289 12.639 23.0703 16.5204 18.6912 16.9292C14.312 17.338 10.4305 14.1194 10.0217 9.74024C9.61293 5.36106 12.8316 1.47963 17.2107 1.07082C18.9359 0.909769 20.5858 1.31248 21.975 2.12723L21.8978 1.29979C21.876 1.06679 21.9364 0.845055 22.0552 0.663274C22.2155 0.417995 22.482 0.245461 22.7964 0.216111C23.3438 0.165012 23.829 0.567342 23.8801 1.11473L24.2193 4.74895ZM10.8599 2.99674L3.45799 3.68773C1.63333 3.85807 0.292237 5.47534 0.462575 7.29999L2.31312 27.123C2.48346 28.9476 4.10072 30.2888 5.92538 30.1184L23.4357 28.4838C23.9831 28.4327 24.3854 27.9475 24.3343 27.4001C24.2832 26.8527 23.798 26.4504 23.2507 26.5015L5.74033 28.1361C5.01047 28.2042 4.36356 27.6678 4.29542 26.9379L23.1273 25.1799C23.6747 25.1288 24.077 24.6436 24.0259 24.0963L23.3244 16.5814C22.0372 17.4955 20.4995 18.0935 18.8145 18.2508C14.6239 18.642 10.824 16.186 9.33006 12.4709C9.31828 12.4418 9.30675 12.4126 9.29536 12.3834C9.1433 11.994 9.01664 11.5911 8.91727 11.1764C8.81526 10.7505 8.74209 10.3123 8.7002 9.86361C8.61447 8.94518 8.66552 8.04551 8.83658 7.18478C8.92971 6.71585 9.05857 6.25847 9.22028 5.81592C9.5984 4.78135 10.1564 3.82774 10.8599 2.99674Z" fill="white"/>
</svg>
