<svg width="45" height="44" viewBox="0 0 45 44" fill="none" xmlns="http://www.w3.org/2000/svg">
<g clip-path="url(#clip0_37_773)">
<path d="M25.3793 6.72097C33.6835 8.34971 39.0944 16.4029 37.466 24.7056C35.8375 33.0083 27.7855 38.4211 19.4813 36.7923C11.1771 35.1636 5.76619 27.1103 7.39463 18.8076C9.02307 10.5049 17.0751 5.09224 25.3793 6.72097ZM21.3981 27.0191C20.5677 26.8563 19.7626 27.3974 19.5997 28.2278C19.4368 29.0582 19.9779 29.8634 20.8083 30.0263C21.6388 30.1891 22.4439 29.648 22.6068 28.8176C22.7697 27.9872 22.2286 27.182 21.3981 27.0191ZM23.9785 13.8629C21.6949 13.415 19.4806 14.9032 19.0327 17.1868C18.9106 17.8095 19.3164 18.4135 19.9392 18.5356C20.5101 18.6476 21.0652 18.3159 21.2479 17.7801L21.2881 17.6291C21.4917 16.5911 22.4981 15.9147 23.5362 16.1183C24.5742 16.3219 25.2506 17.3284 25.047 18.3664C24.8881 19.1765 24.6065 19.5374 23.6845 20.1792L23.4404 20.346C21.8611 21.4074 21.1796 22.1626 20.8603 23.7908C20.7381 24.4136 21.144 25.0175 21.7668 25.1397C22.3896 25.2618 22.9935 24.856 23.1156 24.2332C23.2745 23.423 23.5561 23.0622 24.4781 22.4203L24.7223 22.2535C26.3015 21.1922 26.983 20.4369 27.3024 18.8087C27.7502 16.5251 26.2621 14.3108 23.9785 13.8629Z" fill="white"/>
</g>
<defs>
<clipPath id="clip0_37_773">
<rect width="36.7731" height="36.7731" fill="white" transform="translate(7.92566 0.174805) rotate(11.0968)"/>
</clipPath>
</defs>
</svg>
