<svg width="26" height="28" viewBox="0 0 26 28" fill="none" xmlns="http://www.w3.org/2000/svg">
<path d="M12.8351 6.36993C14.5589 6.33276 15.9263 4.90515 15.8891 3.18129C15.852 1.45743 14.4243 0.0901031 12.7005 0.127282C10.9767 0.16446 9.60931 1.59207 9.64649 3.31593C9.68367 5.03979 11.1113 6.40711 12.8351 6.36993ZM4.64991 3.32381C3.04956 2.68486 1.22768 3.45918 0.577057 5.05481C-0.0758103 6.65596 0.69799 8.4766 2.30385 9.11773L6.5369 10.8078C7.05403 11.0143 7.39765 11.5099 7.40966 12.0666L7.5006 16.2832L5.05724 23.9096C4.53116 25.5516 5.43584 27.3093 7.07788 27.8353C8.71992 28.3614 10.4775 27.4568 11.0036 25.8147L12.8051 20.1916C12.9058 19.8774 13.3469 19.8679 13.461 20.1774L15.5035 25.7179C16.0998 27.3358 17.8948 28.1638 19.5126 27.5674C21.1305 26.9711 21.9586 25.176 21.3621 23.5582L18.5986 16.0442L18.5076 11.8243C18.4956 11.2676 18.8175 10.7577 19.3253 10.5291L23.4748 8.66113C25.0516 7.95135 25.7462 6.09904 25.0249 4.52753C24.306 2.96143 22.4525 2.26638 20.8811 2.97374L18.6736 3.96748C18.2053 4.1783 17.884 4.57136 17.7316 5.00227C17.0226 7.00825 15.1307 8.46188 12.8813 8.5104C10.6317 8.55892 8.67898 7.18822 7.8841 5.2147C7.71335 4.79077 7.37534 4.41193 6.89839 4.22151L4.64991 3.32381Z" fill="white"/>
</svg>
