<svg width="220" height="52" viewBox="0 0 220 52" fill="none" xmlns="http://www.w3.org/2000/svg">
<path fill-rule="evenodd" clip-rule="evenodd" d="M28.4336 14.1082L35.9363 0.531738H50.9282L35.4794 27.5652L27.9082 15.0574L28.4336 14.1082Z" fill="#4B4B4B"/>
<path fill-rule="evenodd" clip-rule="evenodd" d="M48.2832 50.845H36.2314L27.4473 35.812L35.242 22.9141L51.5661 50.845H48.2832Z" fill="#4B4B4B"/>
<path fill-rule="evenodd" clip-rule="evenodd" d="M218.114 50.8453H187.838V0.531738H201.183V38.2315H219.999V50.8453H218.114Z" fill="#4B4B4B"/>
<path fill-rule="evenodd" clip-rule="evenodd" d="M183.341 50.8453H153.064V0.531738H166.409V38.2315H185.226V50.8453H183.341Z" fill="#4B4B4B"/>
<path fill-rule="evenodd" clip-rule="evenodd" d="M145.241 50.8453H133.781V0.531738H147.126V50.8453H145.241Z" fill="#4B4B4B"/>
<path fill-rule="evenodd" clip-rule="evenodd" d="M127.791 50.8453H115.36L104.642 33.1045L102.415 35.9138V50.8453H89.0703V0.531738H102.415V16.8765L114.755 0.531738H131.024L113.785 22.2466L131.128 50.8453H127.791Z" fill="#4B4B4B"/>
<path fill-rule="evenodd" clip-rule="evenodd" d="M85.7266 35.7952C85.7266 40.6222 84.0864 44.4448 80.8078 47.2629C77.6174 50.0045 73.5072 51.3767 68.4816 51.3767C65.1497 51.3767 62.0136 50.8575 59.0797 49.8193C56.1403 48.7811 53.4201 47.2256 50.9251 45.158L49.715 44.1554L55.8046 33.3083L57.5294 34.6403C59.4322 36.1095 61.2932 37.2048 63.1062 37.9242C64.8523 38.616 66.5797 38.9633 68.2822 38.9633C69.0738 38.9633 69.7497 38.8913 70.3053 38.7496C70.811 38.6179 71.2384 38.4291 71.5812 38.1859C71.8582 37.99 72.0593 37.7639 72.1822 37.5136C72.3149 37.243 72.3817 36.8905 72.3817 36.4594C72.3817 36.0862 72.3149 35.7569 72.1832 35.4764C72.0434 35.1771 71.8164 34.8914 71.5073 34.6225C71.0906 34.2654 70.4218 33.838 69.503 33.3447C68.5173 32.8157 67.2414 32.213 65.6778 31.5407C64.7143 31.1356 63.8443 30.759 63.0732 30.4126C62.3057 30.0644 61.6094 29.7358 60.9932 29.4277C60.3796 29.1205 59.7493 28.7706 59.1072 28.3814C58.4724 28.0003 57.8322 27.5783 57.1858 27.1198C56.4895 26.6212 55.884 26.1332 55.3764 25.6541C54.8225 25.1332 54.348 24.6026 53.9597 24.0665C53.5875 23.5528 53.2385 22.9651 52.917 22.308C52.6037 21.6678 52.3303 20.9928 52.0988 20.2858C51.8556 19.5414 51.6713 18.7462 51.5512 17.9082C51.4309 17.074 51.3703 16.2093 51.3703 15.3154C51.3703 13.0501 51.7693 10.9834 52.5645 9.11886C53.3685 7.23384 54.5688 5.583 56.16 4.16895C57.7352 2.77724 59.5302 1.73114 61.5462 1.03388C63.5379 0.34562 65.7187 0 68.0827 0C70.9855 0 73.7254 0.409621 76.297 1.22622C78.8819 2.04714 81.2638 3.27242 83.4381 4.89662L84.6651 5.81285L79.3654 17.0766L77.5586 15.8933C75.7449 14.7054 74.0432 13.8203 72.4637 13.2424C70.9508 12.6904 69.535 12.4134 68.2163 12.4134C66.9625 12.4134 66.033 12.6521 65.4284 13.1276C65.1773 13.3325 64.9921 13.5498 64.8816 13.7785C64.7739 14.0217 64.7152 14.3127 64.7152 14.6512C64.7152 15.4008 64.9646 15.9663 65.4595 16.3403C65.878 16.6563 66.6073 17.0837 67.6403 17.6179C68.7355 18.1835 70.1627 18.8637 71.9143 19.6518C76.7021 21.7933 80.1588 23.9731 82.2779 26.1883C83.44 27.4055 84.3089 28.832 84.8842 30.4652C85.4451 32.0687 85.7266 33.8434 85.7266 35.7952Z" fill="#4B4B4B"/>
<path fill-rule="evenodd" clip-rule="evenodd" d="M20.2233 50.8453H6.33091L17.2145 31.8899H0V19.4035H17.8602L6.83304 0.531738H22.168L36.6133 25.2544L21.2838 50.8453H20.2233Z" fill="#ADCE18"/>
</svg>
