<svg width="220" height="52" viewBox="0 0 220 52" fill="none" xmlns="http://www.w3.org/2000/svg">
<path fill-rule="evenodd" clip-rule="evenodd" d="M28.434 14.1077L35.9367 0.53125H50.9286L35.4798 27.5647L27.9086 15.0569L28.434 14.1077Z" fill="white"/>
<path fill-rule="evenodd" clip-rule="evenodd" d="M48.2824 50.845H36.2306L27.4465 35.812L35.2412 22.9141L51.5653 50.845H48.2824Z" fill="white"/>
<path fill-rule="evenodd" clip-rule="evenodd" d="M218.115 50.8448H187.839V0.53125H201.183V38.231H220V50.8448H218.115Z" fill="white"/>
<path fill-rule="evenodd" clip-rule="evenodd" d="M183.34 50.8448H153.064V0.53125H166.409V38.231H185.225V50.8448H183.34Z" fill="white"/>
<path fill-rule="evenodd" clip-rule="evenodd" d="M145.241 50.8448H133.781V0.53125H147.126V50.8448H145.241Z" fill="white"/>
<path fill-rule="evenodd" clip-rule="evenodd" d="M127.792 50.8448H115.361L104.643 33.104L102.416 35.9133V50.8448H89.071V0.53125H102.416V16.8761L114.755 0.53125H131.025L113.786 22.2461L131.128 50.8448H127.792Z" fill="white"/>
<path fill-rule="evenodd" clip-rule="evenodd" d="M85.7265 35.7952C85.7265 40.6222 84.0864 44.4448 80.8078 47.2629C77.6173 50.0045 73.5071 51.3767 68.4816 51.3767C65.1497 51.3767 62.0135 50.8575 59.0796 49.8193C56.1403 48.7811 53.4201 47.2256 50.925 45.158L49.715 44.1554L55.8046 33.3083L57.5293 34.6403C59.4322 36.1095 61.2932 37.2048 63.1061 37.9242C64.8523 38.616 66.5797 38.9633 68.2821 38.9633C69.0738 38.9633 69.7497 38.8913 70.3053 38.7496C70.8109 38.6179 71.2384 38.4291 71.5812 38.1859C71.8582 37.99 72.0593 37.7639 72.1822 37.5136C72.3149 37.243 72.3817 36.8905 72.3817 36.4594C72.3817 36.0862 72.3149 35.7569 72.1832 35.4764C72.0434 35.1771 71.8163 34.8914 71.5073 34.6225C71.0905 34.2654 70.4218 33.838 69.5029 33.3447C68.5173 32.8157 67.2413 32.213 65.6777 31.5407C64.7142 31.1356 63.8443 30.759 63.0731 30.4126C62.3057 30.0644 61.6093 29.7358 60.9931 29.4277C60.3796 29.1205 59.7493 28.7706 59.1072 28.3814C58.4724 28.0003 57.8322 27.5783 57.1858 27.1198C56.4894 26.6212 55.8839 26.1332 55.3764 25.6541C54.8225 25.1332 54.3479 24.6026 53.9597 24.0665C53.5874 23.5528 53.2384 22.9651 52.917 22.308C52.6037 21.6678 52.3303 20.9928 52.0987 20.2858C51.8555 19.5414 51.6713 18.7462 51.5512 17.9082C51.4309 17.074 51.3703 16.2093 51.3703 15.3154C51.3703 13.0501 51.7692 10.9834 52.5644 9.11886C53.3685 7.23384 54.5688 5.583 56.16 4.16895C57.7352 2.77724 59.5301 1.73114 61.5461 1.03388C63.5379 0.34562 65.7186 0 68.0827 0C70.9855 0 73.7254 0.409621 76.2969 1.22622C78.8818 2.04714 81.2637 3.27242 83.4381 4.89662L84.6651 5.81285L79.3654 17.0766L77.5586 15.8933C75.7449 14.7054 74.0432 13.8203 72.4637 13.2424C70.9507 12.6904 69.535 12.4134 68.2163 12.4134C66.9625 12.4134 66.0329 12.6521 65.4284 13.1276C65.1773 13.3325 64.9921 13.5498 64.8816 13.7785C64.7739 14.0217 64.7152 14.3127 64.7152 14.6512C64.7152 15.4008 64.9645 15.9663 65.4595 16.3403C65.878 16.6563 66.6073 17.0837 67.6403 17.6179C68.7355 18.1835 70.1627 18.8637 71.9143 19.6518C76.7021 21.7933 80.1587 23.9731 82.2779 26.1883C83.44 27.4055 84.3089 28.832 84.8842 30.4652C85.445 32.0687 85.7265 33.8434 85.7265 35.7952Z" fill="white"/>
<path fill-rule="evenodd" clip-rule="evenodd" d="M20.2233 50.8448H6.33091L17.2145 31.8894H0V19.403H17.8602L6.83304 0.53125H22.168L36.6133 25.2539L21.2838 50.8448H20.2233Z" fill="#ADCE18"/>
</svg>
