<svg width="0" height="0" class="hidden">
  <symbol xmlns="http://www.w3.org/2000/svg" viewBox="0 0 17 27" id="ic_accord_arr">
    <path d="M16.1271 12.7441C16.5876 13.1428 16.5876 13.8572 16.1271 14.2559L2.15465 26.3564C1.50701 26.9173 0.500001 26.4573 0.500001 25.6005L0.500002 1.39948C0.500002 0.542729 1.50701 0.0826764 2.15466 0.643553L16.1271 12.7441Z" fill="currentColor"></path>
  </symbol>
  <symbol xmlns="http://www.w3.org/2000/svg" viewBox="0 0 66 66" id="ic_check">
    <path d="M32.588 0.580078C50.5371 0.580078 65.088 15.1308 65.088 33.0801C65.088 51.0292 50.5371 65.5801 32.588 65.5801C14.6387 65.5801 0.0879517 51.0292 0.0879517 33.0801C0.0879517 15.1308 14.6387 0.580078 32.588 0.580078ZM43.052 23.2315L28.5255 37.7578L22.124 31.3566C21.1721 30.4047 19.6288 30.4047 18.6769 31.3566C17.725 32.3085 17.725 33.8516 18.6769 34.8036L26.802 42.9286C27.7539 43.8805 29.297 43.8805 30.2489 42.9286L46.4989 26.6786C47.4509 25.7268 47.4509 24.1834 46.4989 23.2315C45.547 22.2796 44.0039 22.2796 43.052 23.2315Z" fill="currentColor"></path>
  </symbol>
  <symbol xmlns="http://www.w3.org/2000/svg" viewBox="0 0 40 40" id="ic_check2">
    <path d="M28.6801 0C35.4601 0 40.0001 4.76 40.0001 11.84V28.182C40.0001 35.24 35.4601 40 28.6801 40H11.3401C4.56006 40 6.10352e-05 35.24 6.10352e-05 28.182V11.84C6.10352e-05 4.76 4.56006 0 11.3401 0H28.6801ZM28.3601 14C27.6801 13.32 26.5601 13.32 25.8801 14L17.6201 22.26L14.1201 18.76C13.4401 18.08 12.3201 18.08 11.6401 18.76C10.9601 19.44 10.9601 20.54 11.6401 21.24L16.4001 25.98C16.7401 26.32 17.1801 26.48 17.6201 26.48C18.0801 26.48 18.5201 26.32 18.8601 25.98L28.3601 16.48C29.0401 15.8 29.0401 14.7 28.3601 14Z" fill="currentColor"></path>
  </symbol>
  <symbol xmlns="http://www.w3.org/2000/svg" viewBox="0 0 40 40" id="ic_close">
    <path fill-rule="evenodd" clip-rule="evenodd" d="M7.15465 30.488C6.50379 31.1388 6.50379 32.1942 7.15465 32.845C7.80554 33.4958 8.8608 33.4958 9.51169 32.845L19.9998 22.3568L30.488 32.845C31.1388 33.4958 32.1942 33.4958 32.845 32.845C33.4958 32.1942 33.4958 31.1388 32.845 30.488L22.3568 19.9998L32.845 9.51169C33.4958 8.8608 33.4958 7.80554 32.845 7.15465C32.1942 6.50379 31.1388 6.50379 30.488 7.15465L19.9998 17.6428L9.51169 7.15465C8.8608 6.50379 7.80554 6.50379 7.15465 7.15465C6.50379 7.80554 6.50379 8.8608 7.15465 9.51169L17.6428 19.9998L7.15465 30.488Z" fill="currentColor"></path>
  </symbol>
  <symbol xmlns="http://www.w3.org/2000/svg" viewBox="0 0 24 16" id="ic_menu">
    <rect x="0.785645" y="0.666504" width="22.4524" height="2.92857" rx="1.46428" fill="currentColor"></rect>
    <rect x="0.785645" y="12.3809" width="22.4524" height="2.92857" rx="1.46428" fill="currentColor"></rect>
    <rect x="10.5476" y="6.52344" width="12.6905" height="2.92857" rx="1.46428" fill="currentColor"></rect>
  </symbol>
  <symbol xmlns="http://www.w3.org/2000/svg" viewBox="0 0 39 39" id="ic_question">
    <path d="M19.4998 0C30.2696 0 38.9998 8.7321 38.9998 19.5C38.9998 30.2679 30.2696 39 19.4998 39C8.72991 39 -0.000244141 30.2679 -0.000244141 19.5C-0.000244141 8.7321 8.72991 0 19.4998 0ZM19.4998 3.25065C10.5395 3.25065 3.25041 10.5398 3.25041 19.5C3.25041 28.4603 10.5395 35.7494 19.4998 35.7494C28.46 35.7494 35.7491 28.4603 35.7491 19.5C35.7491 10.5398 28.46 3.25065 19.4998 3.25065ZM19.4998 26.325C20.5767 26.325 21.4498 27.198 21.4498 28.275C21.4498 29.352 20.5767 30.225 19.4998 30.225C18.4228 30.225 17.5498 29.352 17.5498 28.275C17.5498 27.198 18.4228 26.325 19.4998 26.325ZM19.4998 9.2625C22.4614 9.2625 24.8623 11.6634 24.8623 14.625C24.8623 16.5961 24.2821 17.6943 22.8126 19.2243L22.4838 19.5591C21.2711 20.7718 20.9623 21.2868 20.9623 22.425C20.9623 23.2327 20.3074 23.8875 19.4998 23.8875C18.6921 23.8875 18.0373 23.2327 18.0373 22.425C18.0373 20.4539 18.6174 19.3557 20.0869 17.8257L20.4157 17.4909C21.6284 16.2782 21.9373 15.7632 21.9373 14.625C21.9373 13.2788 20.846 12.1875 19.4998 12.1875C18.2377 12.1875 17.1997 13.1466 17.0749 14.3758L17.0623 14.625C17.0623 15.4327 16.4074 16.0875 15.5998 16.0875C14.792 16.0875 14.1373 15.4327 14.1373 14.625C14.1373 11.6634 16.5381 9.2625 19.4998 9.2625Z" fill="currentColor"></path>
  </symbol>
  <symbol xmlns="http://www.w3.org/2000/svg" viewBox="0 0 24 22" id="ic_star">
    <path d="M11.9875 0L16.0742 6.36261L23.3883 8.28316L18.6 14.136L19.0336 21.6856L11.9875 18.9403L4.94142 21.6856L5.37504 14.136L0.58671 8.28316L7.90078 6.36261L11.9875 0Z" fill="currentColor"></path>
  </symbol>
  <symbol xmlns="http://www.w3.org/2000/svg" viewBox="0 0 33 39" id="ic_video_play">
    <path d="M32.4885 18.7231C33.1347 19.1117 33.1347 20.0484 32.4885 20.437L2.03734 38.7505C1.37084 39.1514 0.521959 38.6713 0.521959 37.8936L0.521961 1.26648C0.521961 0.488719 1.37084 0.00867153 2.03734 0.409513L32.4885 18.7231Z" fill="currentColor"></path>
  </symbol>
</svg>